<svg width="24" height="22" viewBox="0 0 24 22" fill="none" xmlns="http://www.w3.org/2000/svg">
<path d="M14.1966 12.398H20.3181V13.0303H14.1966V12.398ZM14.1966 8.76213H20.3181V9.39445H14.1966V8.76213ZM14.1966 5.17146H20.3181V5.80378H14.1966V5.17146ZM19.5496 1.62596H19.4194L20.266 0L21.9591 2.28086C21.9157 2.38625 21.8506 2.48411 21.7638 2.57444C21.6856 2.64972 21.5771 2.71747 21.4382 2.77769V13.3464C21.4382 13.4067 21.3513 13.5045 21.1777 13.64C21.004 13.7605 20.7956 13.8809 20.5525 14.0013C20.3094 14.1067 20.0793 14.1594 19.8622 14.1594H19.5496V1.62596ZM13.1416 1.62596V0.293577L15.1083 1.62596H20.5525V2.25828H15.0041V13.2561C15.0041 13.3766 14.926 13.5271 14.7697 13.7078C14.6221 13.8734 14.4267 14.0239 14.1836 14.1594C13.9404 14.2799 13.6886 14.3401 13.4282 14.3401H13.1416V1.62596ZM17.5308 12.398H19.3542C19.3542 12.5184 19.3542 12.6539 19.3542 12.8045C19.3542 12.955 19.3542 13.083 19.3542 13.1884V17.6372C19.3542 17.7877 19.376 17.8931 19.4194 17.9533C19.4715 18.0136 19.5843 18.0437 19.758 18.0437H20.8521C21.017 18.0437 21.1733 18.0437 21.3209 18.0437C21.4772 18.0437 21.5988 18.0361 21.6856 18.0211C21.7811 18.006 21.8506 17.9759 21.894 17.9307C21.9374 17.8856 21.9852 17.8028 22.0373 17.6823C22.1241 17.4716 22.224 17.1102 22.3368 16.5984C22.4497 16.0714 22.5886 15.4391 22.7536 14.7014H22.8839L22.9229 17.8178C23.1574 17.9684 23.3093 18.1491 23.3788 18.3598C23.4569 18.5555 23.496 18.804 23.496 19.1051C23.496 19.5266 23.4135 19.8729 23.2485 20.1439C23.0836 20.4149 22.7927 20.6181 22.3759 20.7536C21.9678 20.9042 21.3861 20.9794 20.6306 20.9794H19.3282C18.842 20.9794 18.4686 20.9042 18.2081 20.7536C17.9476 20.6181 17.7696 20.3622 17.6741 19.9858C17.5786 19.6094 17.5308 19.0825 17.5308 18.405V12.398ZM14.7566 12.7593H16.8145C16.7537 14.3702 16.5236 15.7553 16.1242 16.9145C15.7248 18.0738 15.1257 19.0223 14.3268 19.76C13.5367 20.4977 12.5034 21.0472 11.227 21.4085L11.188 21.1601C12.091 20.5579 12.7943 19.8578 13.2979 19.0599C13.8102 18.2469 14.1749 17.321 14.392 16.2822C14.6177 15.2434 14.7393 14.0691 14.7566 12.7593Z" fill="black"/>
<path d="M1.6541 4.26815H4.06361L4.96229 2.34861C4.96229 2.34861 5.05346 2.46905 5.2358 2.70994C5.41815 2.93577 5.63522 3.22181 5.88702 3.56808C6.14751 3.8993 6.38195 4.22299 6.59034 4.53914C6.56429 4.78003 6.44273 4.90047 6.22566 4.90047H1.28941L1.6541 4.26815ZM0.117219 9.9816H4.41527L5.27488 7.90398C5.27488 7.90398 5.32698 7.97926 5.43117 8.12981C5.53537 8.28036 5.66995 8.47608 5.83493 8.71696C5.9999 8.95785 6.16922 9.21379 6.34288 9.48478C6.51654 9.75577 6.67283 10.0117 6.81176 10.2526C6.77702 10.4935 6.65546 10.6139 6.44707 10.6139H0.221415L0.117219 9.9816ZM2.38346 4.26815H4.20688V8.28789C4.20688 9.08582 4.18083 9.95149 4.12873 10.8849C4.08532 11.8033 3.9898 12.7518 3.84219 13.7303C3.70327 14.6939 3.48619 15.6499 3.19097 16.5984C2.89576 17.5318 2.49634 18.4276 1.99273 19.2857C1.4978 20.1288 0.872634 20.8816 0.117219 21.544L0.0130244 21.3633C0.542683 20.3697 0.963805 19.3234 1.27639 18.2243C1.58898 17.1253 1.82341 16.0112 1.97971 14.8821C2.14468 13.7379 2.25322 12.6087 2.30532 11.4947C2.35741 10.3806 2.38346 9.31165 2.38346 8.28789V4.26815ZM1.34151 0.067749L3.75102 1.17431C3.72498 1.32486 3.66854 1.4453 3.58171 1.53563C3.49488 1.62596 3.37766 1.67113 3.23005 1.67113C2.86537 3.29709 2.42254 4.70475 1.90156 5.89411C1.38927 7.06842 0.803171 8.05454 0.143268 8.85246L0 8.6718C0.20839 7.94915 0.399415 7.12111 0.573073 6.18769C0.755415 5.25427 0.911707 4.26815 1.04195 3.22934C1.18088 2.17548 1.28073 1.12161 1.34151 0.067749ZM3.67288 12.6915C4.37619 13.0378 4.9319 13.4594 5.34 13.9562C5.7481 14.453 6.03029 14.9724 6.18658 15.5144C6.35156 16.0564 6.42102 16.5607 6.39497 17.0274C6.36893 17.4942 6.27341 17.8781 6.10844 18.1792C5.94346 18.4652 5.73941 18.6158 5.49629 18.6308C5.25317 18.6459 4.99268 18.4652 4.71483 18.0888C4.67141 17.4716 4.58893 16.8543 4.46737 16.237C4.3458 15.6198 4.20254 15.0176 4.03756 14.4304C3.88127 13.8433 3.72063 13.3013 3.55566 12.8045L3.67288 12.6915ZM7.78858 17.5243H10.8623V18.1566H7.78858V17.5243ZM10.0288 3.11643H9.89853L10.7581 1.46788L12.4253 3.77133C12.3819 3.87672 12.3167 3.97458 12.2299 4.06491C12.1518 4.14018 12.0476 4.20793 11.9173 4.26815V19.3761C11.9086 19.4513 11.8175 19.5642 11.6438 19.7148C11.4788 19.8653 11.2748 20.0008 11.0317 20.1213C10.7885 20.2417 10.5541 20.3019 10.3283 20.3019H10.0288V3.11643ZM6.68151 3.11643V1.76146L8.58307 3.11643H10.654V3.74875H8.53097V19.5115C8.53097 19.632 8.45717 19.7825 8.30956 19.9632C8.17063 20.1589 7.98395 20.3245 7.74951 20.46C7.51507 20.6106 7.25893 20.6859 6.98107 20.6859H6.68151V3.11643Z" fill="black"/>
</svg>
